<svg id="Layer_5" enable-background="new 0 0 64 64" height="512" viewBox="0 0 64 64" width="512" xmlns="http://www.w3.org/2000/svg"><path d="m32 39c-3.86 0-7-3.141-7-7 0-3.86 3.14-7 7-7s7 3.14 7 7c0 3.859-3.14 7-7 7zm0-9c-1.103 0-2 .897-2 2s.897 2 2 2 2-.897 2-2-.897-2-2-2z" fill="#f0bc5e"/><path d="m32 35c-1.654 0-3-1.346-3-3s1.346-3 3-3 3 1.346 3 3-1.346 3-3 3zm0-4c-.551 0-1 .449-1 1s.449 1 1 1 1-.449 1-1-.449-1-1-1z"/><g fill="#f0bc5e"><path d="m32 17c-1.654 0-3 1.346-3 3s1.346 3 3 3 3-1.346 3-3-1.346-3-3-3z"/><path d="m23.108 23.402c-1.433-.827-3.271-.335-4.099 1.098-.4.694-.507 1.502-.299 2.276s.704 1.421 1.398 1.822c.471.272.986.402 1.495.402 1.038 0 2.048-.538 2.603-1.5.827-1.433.335-3.271-1.098-4.098z"/><path d="m20.108 35.401c-1.433.827-1.926 2.666-1.099 4.099.555.961 1.565 1.499 2.604 1.499.509 0 1.024-.129 1.496-.4 1.432-.828 1.924-2.666 1.098-4.099-.828-1.432-2.667-1.925-4.099-1.099z"/><path d="m32 41c-1.654 0-3 1.346-3 3s1.346 3 3 3 3-1.346 3-3-1.346-3-3-3z"/><path d="m43.892 35.401c-1.433-.824-3.271-.332-4.098 1.099-.827 1.433-.334 3.271 1.098 4.099h.001c.471.271.986.4 1.495.4 1.038 0 2.049-.538 2.604-1.499.825-1.433.333-3.271-1.1-4.099z"/><path d="m42.397 29c.509 0 1.024-.129 1.495-.401.694-.401 1.19-1.047 1.398-1.822.208-.774.101-1.583-.299-2.276-.828-1.433-2.666-1.926-4.099-1.098-1.433.827-1.925 2.666-1.098 4.098.555.96 1.565 1.499 2.603 1.499z"/></g><path d="m9 11h2v2h-2z"/><path d="m9 15h2v2h-2z"/><path d="m9 19h2v2h-2z"/><path d="m9 51h2v2h-2z"/><path d="m9 47h2v2h-2z"/><path d="m9 43h2v2h-2z"/><path d="m32 1c-6.115 0-11.948 1.766-17 5.095v-1.095h-5.535l-1.006 1.509c-3.571 5.356-5.459 11.591-5.459 18.03h2c0-6.042 1.771-11.894 5.123-16.92l.412-.619h2.465v50h-2.465l-.412-.618c-3.352-5.028-5.123-10.878-5.123-16.921h-2c0 6.439 1.888 12.674 5.459 18.03l1.006 1.509h5.535v-1.095c5.053 3.329 10.885 5.095 17 5.095 17.093 0 31-13.906 31-31 0-17.093-13.907-31-31-31zm0 60c-6.169 0-12.031-1.918-17-5.524v-15.042c3.114 6.251 9.555 10.566 17 10.566 10.477 0 19-8.523 19-19s-8.523-19-19-19c-7.445 0-13.886 4.315-17 10.566v-15.043c4.968-3.606 10.831-5.523 17-5.523 15.991 0 29 13.009 29 29 0 15.99-13.009 29-29 29zm-17-29c0-9.374 7.626-17 17-17s17 7.626 17 17-7.626 17-17 17-17-7.626-17-17z"/><path d="m6 41c-2.757 0-5-2.243-5-5s2.243-5 5-5 5 2.243 5 5-2.243 5-5 5zm0-6c-.551 0-1 .449-1 1s.449 1 1 1 1-.449 1-1-.449-1-1-1z" fill="#f0bc5e"/><path d="m6 33c-2.757 0-5-2.243-5-5s2.243-5 5-5 5 2.243 5 5-2.243 5-5 5zm0-6c-.551 0-1 .449-1 1s.449 1 1 1 1-.449 1-1-.449-1-1-1z" fill="#f0bc5e"/><circle cx="6" cy="36" r="1"/><circle cx="6" cy="28" r="1"/><path d="m34.364 59.778-1.415-1.414 1.414-1.414 1.415 1.414zm-2.828-2.829-1.414-1.414 1.414-1.414 1.414 1.414zm-2.829-2.828-1.414-1.414 1.414-1.414 1.414 1.414z"/><path d="m47.937 54.875-1.932-.518.518-1.932 1.932.518zm-3.865-1.035-1.932-.519.519-1.932 1.932.519zm-3.863-1.036-1.932-.518.518-1.932 1.932.518z"/><path d="m47.579 46.43-.518-1.932 1.932-.518.518 1.932zm3.864-1.035-.518-1.932 1.932-.518.518 1.932zm3.864-1.036-.518-1.932 1.932-.518.518 1.932z"/><path d="m52.707 36.707-1.414-1.414 1.414-1.414 1.414 1.414zm2.829-2.828-1.414-1.414 1.414-1.415 1.414 1.414zm2.828-2.829-1.414-1.414 1.415-1.415 1.414 1.414z"/><path d="m52.286 25.723-1.932-.518.518-1.932 1.932.518zm1.035-3.864-1.932-.519.518-1.932 1.932.519zm1.036-3.864-1.932-.518.518-1.932 1.932.518z"/><path d="m44.498 16.938-.518-1.932 1.932-.518.518 1.932zm-1.035-3.863-.518-1.932 1.932-.518.518 1.932zm-1.035-3.864-.518-1.932 1.932-.518.518 1.932z"/><path d="m35.293 12.707-1.414-1.414 1.414-1.414 1.414 1.414zm-2.829-2.829-1.414-1.414 1.414-1.414 1.414 1.414zm-2.828-2.828-1.415-1.415 1.414-1.414 1.415 1.415z"/><path d="m25.205 13.646-1.932-.518.518-1.932 1.932.518zm-3.864-1.036-1.932-.518.519-1.932 1.932.518zm-3.863-1.035-1.932-.518.518-1.932 1.932.518z"/><path d="m20.158 57.238-.518-1.932 1.932-.518.518 1.932zm-1.035-3.863-.518-1.933 1.932-.518.518 1.933zm-1.035-3.864-.518-1.932 1.932-.518.518 1.932z"/></svg>