<?xml version="1.0" encoding="UTF-8"?>
<svg xmlns="http://www.w3.org/2000/svg" xmlns:xlink="http://www.w3.org/1999/xlink" xmlns:svgjs="http://svgjs.com/svgjs" version="1.1" width="512" height="512" x="0" y="0" viewBox="0 0 496 495.996" style="enable-background:new 0 0 512 512" xml:space="preserve" class="">
  <g>
    <path fill="#6b4deb" d="M328 176c-7.296 0-14.155-2.841-19.314-8L280 139.313c-5.159-5.159-8-12.018-8-19.313s2.841-14.154 8-19.313L308.686 72c5.159-5.159 12.019-8 19.314-8s14.155 2.841 19.314 8L376 100.686c5.159 5.159 8 12.018 8 19.313s-2.841 14.154-8 19.313L347.314 168c-5.159 5.158-12.018 8-19.314 8zM67.882 280.868H27.313c-7.295 0-14.154-2.841-19.313-8s-8-12.019-8-19.313v-40.569c0-7.296 2.841-14.155 8-19.314 5.16-5.159 12.019-8 19.313-8h40.568c7.295 0 14.154 2.841 19.313 8 5.16 5.16 8.001 12.019 8.001 19.314v40.569c0 7.295-2.841 14.154-8 19.313s-12.017 8-19.313 8z" data-original="#f0bc5e" class=""/>
    <path d="m355.947 80.632 60.792-61.963A8.96 8.96 0 0 1 423.096 16c4.91 0 8.904 3.994 8.904 8.904a8.958 8.958 0 0 1-2.668 6.355l-61.965 60.794 8.633 8.633a27.823 27.823 0 0 1 2.493 2.866l62.045-60.872C445.28 38.028 448 31.548 448 24.904 448 11.172 436.828 0 423.096 0c-6.644 0-13.123 2.72-17.778 7.463l-60.87 62.043a27.625 27.625 0 0 1 2.867 2.493zM460.687 226.745l-86.06-86.059L363.313 152l86.06 86.059C469.123 257.809 480 284.067 480 312c0 70.579-57.421 128-128 128-11.732 0-23.267-1.581-34.423-4.702a142.949 142.949 0 0 0 8.895-14.251A112.043 112.043 0 0 0 352 424c61.757 0 112-50.243 112-112 0-23.658-9.213-45.9-25.941-62.628l-86.058-86.059-4.687 4.687a27.334 27.334 0 0 1-7.792 5.463l87.223 87.224C440.451 274.393 448 292.615 448 312c0 52.935-43.065 96-96 96a96.173 96.173 0 0 1-18.499-1.803c21.011-51.996 10.474-113.869-31.614-155.957a120.662 120.662 0 0 0-28.682-21.246c9.284-21.289 22.185-41.034 38.409-58.454a27.718 27.718 0 0 1-2.928-2.54l-8.58-8.58C261.294 200.979 240 254.849 240 312c0 34.575 15.994 67.055 43.116 88.255a95.665 95.665 0 0 1-9.172 13.111C242.549 389.141 224 351.759 224 312c0-31.646 6.141-62.517 18.251-91.754 11.11-26.821 26.755-51.05 46.535-72.146L280 139.313a27.666 27.666 0 0 1-2.371-2.711c-21.348 22.634-38.211 48.674-50.159 77.52-.173.417-.332.839-.503 1.257-3.433-.29-6.888-.453-10.334-.453l-121.437.001v16l121.437-.001c1.507 0 3.015.043 4.522.107a255.564 255.564 0 0 0-4.739 15.893H95.196v6.628c0 3.248-.567 6.408-1.647 9.372h119.186A255.609 255.609 0 0 0 208 312c0 44.094 20.269 85.583 54.662 112.852-17.382 14.987-39.348 23.162-62.599 23.162-25.674 0-49.781-9.969-67.882-28.069C94.735 382.5 73.358 333.274 71.48 280.627a27.698 27.698 0 0 1-3.598.241H55.479c1.942 56.83 24.977 109.979 65.388 150.392 21.123 21.122 49.249 32.755 79.196 32.755 29.948 0 58.073-11.633 79.196-32.755 21.122-21.122 32.755-49.248 32.755-79.196 0-29.947-11.633-58.073-32.755-79.196a89.13 89.13 0 0 0-16.661-13.105 205.044 205.044 0 0 1 4.746-15.759 104.877 104.877 0 0 1 23.229 17.552c49.907 49.907 49.907 131.111 0 181.019C266.438 466.709 234.295 480 200.064 480s-66.375-13.291-90.51-37.427c-22.378-22.378-39.865-48.548-51.975-77.785-11.11-26.82-17.18-55.015-18.11-83.92H27.313c-1.304 0-2.594-.095-3.863-.273.906 31.112 7.395 61.46 19.348 90.316 12.918 31.188 31.571 59.104 55.442 82.977 28.073 28.072 64.948 42.108 101.824 42.108 36.875 0 73.75-14.036 101.823-42.108a145.938 145.938 0 0 0 4.911-5.161C321.346 453.551 336.524 456 352 456c79.401 0 144-64.599 144-144 0-32.206-12.541-62.483-35.313-85.255zm-192.742 57.437c18.102 18.101 28.069 42.208 28.069 67.882 0 11.543-2.021 22.766-5.884 33.272C268.605 367.154 256 340.401 256 312c0-12 1.022-23.842 3.003-35.434a73.58 73.58 0 0 1 8.942 7.616zM39.261 185.672l-.835-96.684a8.953 8.953 0 0 1 2.607-6.38c3.469-3.471 9.119-3.474 12.592-.001a8.96 8.96 0 0 1 2.607 6.388l-.835 96.677h12.484c1.186 0 2.358.083 3.515.231l.836-96.763c.063-6.643-2.596-13.147-7.294-17.846-9.709-9.709-25.509-9.71-35.22.001-4.699 4.699-7.356 11.205-7.293 17.84l.836 96.834a27.642 27.642 0 0 1 4.052-.297z" fill="#c4c4c4" data-original="#000000" class=""/>
  </g>
</svg>
