<?xml version="1.0" encoding="UTF-8"?>
<svg xmlns="http://www.w3.org/2000/svg" xmlns:xlink="http://www.w3.org/1999/xlink" xmlns:svgjs="http://svgjs.com/svgjs" version="1.1" width="512" height="512" x="0" y="0" viewBox="0 0 496 496" style="enable-background:new 0 0 512 512" xml:space="preserve" class="">
  <g>
    <path d="M424 368h-88V224h88c39.704 0 72 32.296 72 72s-32.296 72-72 72zM160 368H72c-39.704 0-72-32.296-72-72s32.296-72 72-72h88v144z" style="" fill="#6b4deb" data-original="#ffa64d" class=""/>
    <path d="M432 96V56c0-13.232-10.768-24-24-24H303.192C299.472 13.768 283.312 0 264 0h-32c-22.056 0-40 17.944-40 40v121.472c-9.288 3.312-16 12.112-16 22.528v8h-32v208h32v8c0 13.232 10.768 24 24 24h8v64h80v-64h8c13.232 0 24-10.768 24-24v-8h32V192h-32v-8c0-10.416-6.712-19.216-16-22.528V144h80v40c0 13.232 10.768 24 24 24h88V96h-64zM160 384V208h16v176h-16zm112 96h-48v-48h48v48zm64-272v176h-16v-16h-16v40c0 4.408-3.592 8-8 8h-96c-4.408 0-8-3.592-8-8V184c0-4.408 3.592-8 8-8h96c4.408 0 8 3.592 8 8v168h16V208h16zm-80-96h-16V88c0-4.408 3.592-8 8-8 4.408 0 8 3.592 8 8v24zm-16 16h16v32h-16v-32zm48 32h-16V88c0-13.232-10.768-24-24-24s-24 10.768-24 24v72h-16V40c0-13.232 10.768-24 24-24h32c13.232 0 24 10.768 24 24v120zm16-112h104c4.408 0 8 3.592 8 8v73.368a24.07 24.07 0 0 0-8-1.368H304V48zm104 96c4.408 0 8 3.592 8 8s-3.592 8-8 8c-2.816 0-5.488.576-8 1.472V144h8zm72 48h-72c-4.408 0-8-3.592-8-8s3.592-8 8-8c13.232 0 24-10.768 24-24v-40h48v80z" style="" fill="#c4c4c4" data-original="#333333" class=""/>
    <path d="M424 264c-17.648 0-32 14.352-32 32s14.352 32 32 32 32-14.352 32-32-14.352-32-32-32zm0 48c-8.824 0-16-7.176-16-16s7.176-16 16-16 16 7.176 16 16-7.176 16-16 16zM368 312h16v16h-16zM368 264h16v16h-16zM72 264c-17.648 0-32 14.352-32 32s14.352 32 32 32 32-14.352 32-32-14.352-32-32-32zm0 48c-8.824 0-16-7.176-16-16s7.176-16 16-16 16 7.176 16 16-7.176 16-16 16zM112 312h16v16h-16zM112 264h16v16h-16zM272 224h16v144h-16zM272 384h16v16h-16zM272 192h16v16h-16zM208 224h16v144h-16zM208 384h16v16h-16zM208 192h16v16h-16z" style="" fill="#c4c4c4" data-original="#333333" class=""/>
  </g>
</svg>
