<?xml version="1.0" encoding="UTF-8"?>
<svg xmlns="http://www.w3.org/2000/svg" xmlns:xlink="http://www.w3.org/1999/xlink" xmlns:svgjs="http://svgjs.com/svgjs" version="1.1" width="512" height="512" x="0" y="0" viewBox="0 0 64 64" style="enable-background:new 0 0 512 512" xml:space="preserve" class="">
  <g>
    <g fill="#f0bc5e">
      <path d="M40 11c-1.654 0-3-1.346-3-3s1.346-3 3-3 3 1.346 3 3-1.346 3-3 3zM32 11c-1.654 0-3-1.346-3-3s1.346-3 3-3 3 1.346 3 3-1.346 3-3 3zM24 11c-1.654 0-3-1.346-3-3s1.346-3 3-3 3 1.346 3 3-1.346 3-3 3z" fill="#2d31f8" data-original="#f0bc5e" class=""/>
    </g>
    <path d="M63 12V8c0-1.654-1.346-3-3-3H46.618l-1.171-2.342A2.983 2.983 0 0 0 42.764 1H21.236a2.984 2.984 0 0 0-2.684 1.658L17.382 5H4C2.346 5 1 6.346 1 8v4c0 1.302.839 2.402 2 2.816v36.369A2.994 2.994 0 0 0 1 54v2c0 1.654 1.346 3 3 3h1v1c0 1.654 1.346 3 3 3h6c1.654 0 3-1.346 3-3v-1h30v1c0 1.654 1.346 3 3 3h6c1.654 0 3-1.346 3-3v-1h1c1.654 0 3-1.346 3-3v-2a2.996 2.996 0 0 0-2-2.816V14.816A2.996 2.996 0 0 0 63 12zM15 60c0 .551-.448 1-1 1H8c-.552 0-1-.449-1-1v-1h8zm42 0c0 .551-.448 1-1 1h-6c-.552 0-1-.449-1-1v-1h8zm4-4c0 .551-.448 1-1 1H4c-.552 0-1-.449-1-1v-2c0-.551.448-1 1-1h56c.552 0 1 .449 1 1zM5 51V15h2v36zm4 0V15h2v36zm4 0V15h2v36zm8-26V15h2v10h2V15h2v10h2V15h2v10h2V15h2v10h2V15h2v10h2V15h2v10h2V15h2v36h-2V41h-2v10h-2V41h-2v10h-2V41h-2v10h-2V41h-2v10h-2V41h-2v10h-2V41h-2v10h-2V41h-2v10h-2V15h2v10zm28 26V15h2v36zm4 0V15h2v36zm4 0V15h2v36zm3-38H4c-.552 0-1-.449-1-1V8c0-.551.448-1 1-1h14.618l1.724-3.447A.995.995 0 0 1 21.236 3h21.527c.381 0 .724.212.895.553L45.382 7H60c.552 0 1 .449 1 1v4c0 .551-.448 1-1 1z" fill="#c4c4c4" data-original="#000000" class=""/>
    <path fill="#2d31f8" d="M44 42H20c-2.757 0-5-2.243-5-5v-8c0-2.757 2.243-5 5-5h24c2.757 0 5 2.243 5 5v8c0 2.757-2.243 5-5 5z" data-original="#f0bc5e" class=""/>
    <path d="M19 28h2v2h-2zM23 28h22v2H23zM19 32h26v2H19zM19 36h22v2H19zM43 36h2v2h-2z" fill="#c4c4c4" data-original="#000000" class=""/>
  </g>
</svg>
