<svg id="_x31_" height="512" viewBox="0 0 24 24" width="512" xmlns="http://www.w3.org/2000/svg"><path d="m21.5 8h-4c-.276 0-.5-.224-.5-.5s.224-.5.5-.5h4c.827 0 1.5-.673 1.5-1.5v-2c0-.827-.673-1.5-1.5-1.5h-19c-.827 0-1.5.673-1.5 1.5v2c0 .827.673 1.5 1.5 1.5h2c.276 0 .5.224.5.5s-.224.5-.5.5h-2c-1.378 0-2.5-1.122-2.5-2.5v-2c0-1.378 1.122-2.5 2.5-2.5h19c1.378 0 2.5 1.122 2.5 2.5v2c0 1.378-1.122 2.5-2.5 2.5z"/><path d="m20.5 5h-17c-.276 0-.5-.224-.5-.5s.224-.5.5-.5h17c.276 0 .5.224.5.5s-.224.5-.5.5z"/><path d="m17.5 23c-.117 0-.233-.041-.325-.121l-3.148-2.698-2.673 2.672c-.195.195-.512.195-.707 0l-2.673-2.672-3.148 2.698c-.148.127-.356.156-.534.075s-.292-.259-.292-.454v-15c0-1.93 1.57-3.5 3.5-3.5h13c.276 0 .5.224.5.5s-.224.5-.5.5c-1.378 0-2.5 1.122-2.5 2.5v15c0 .195-.114.373-.291.454-.067.031-.138.046-.209.046zm-9.5-4c.128 0 .256.049.354.146l2.646 2.647 2.647-2.646c.185-.186.48-.196.679-.026l2.674 2.292v-13.913c0-.979.403-1.864 1.053-2.5h-10.553c-1.378 0-2.5 1.122-2.5 2.5v13.913l2.674-2.292c.094-.081.21-.121.326-.121z"/></svg>