<svg id="Image" height="512" viewBox="0 0 64 64" width="512" xmlns="http://www.w3.org/2000/svg"><g><g><path d="m32 41c-3.4 0-4.6-.8-5.7-1.6-.3-.2-.5-.4-.8-.5-3-1.8-5.2-4.9-6.2-9.3-1.4-.5-3.3-2-3.3-5.6 0-2.8 1.3-3.7 1.4-3.8.5-.3 1.1-.2 1.4.3s.2 1.1-.3 1.4-.6.5-.6 2.2c0 3.4 2.1 3.8 2.3 3.8.4.1.8.4.9.8.6 2.8 1.9 6.6 5.3 8.6.4.2.7.4 1 .6 1 .7 1.8 1.2 4.5 1.2 2.8 0 3.5-.5 4.5-1.2.3-.2.6-.4 1-.6 3.4-2 4.8-5.7 5.3-8.6.1-.4.5-.8.9-.8.2 0 2.3-.4 2.3-3.8 0-1.7-.6-2.2-.6-2.2-.5-.3-.6-.9-.2-1.4.3-.5 1-.6 1.4-.2.1.1 1.4 1.1 1.4 3.8 0 3.6-1.9 5.1-3.3 5.6-1 4.3-3.1 7.5-6.2 9.3-.3.2-.6.4-.8.5-1 .7-2.2 1.5-5.6 1.5z" fill="rgb(0,0,0)"/></g><g><path d="m18 22c-.4 0-.7-.2-.9-.6-.2-.5 0-1.1.5-1.3 2.6-1.2 4.6-3.8 6.5-8.5.1-.3.4-.5.7-.6s.7 0 .9.3c2.9 2.7 7 2.1 9.7 1.7.8-.1 1.5-.2 2-.2 4 0 5.6 2.9 6.7 5 .7 1.4 1.2 2.3 1.9 2.3.6 0 1 .4 1 1s-.4 1-1 1c-1.9 0-2.8-1.7-3.7-3.3-1.1-2-2.1-3.9-4.9-3.9-.4 0-1 .1-1.7.2-2.6.4-6.9 1-10.3-1.3-2 4.4-4.2 7-7 8.3-.1-.1-.3-.1-.4-.1z" fill="rgb(0,0,0)"/></g><g><path d="m62 63c-.6 0-1-.4-1-1 0-5.5 0-9.9-7.8-11.8-6.5-1.5-14.2-4.5-14.2-9.6v-4.1c0-.6.4-1 1-1s1 .4 1 1v4.1c0 2.9 4.6 5.7 12.6 7.7 9.4 2.2 9.4 8.3 9.4 13.6 0 .6-.4 1.1-1 1.1z" fill="rgb(0,0,0)"/></g><g><path d="m2 62h-1c0-5.4 0-11.5 9.4-13.7 8-1.9 12.6-4.7 12.6-7.7v-4.1c0-.6.4-1 1-1s1 .4 1 1v4.1c0 5.1-7.7 8.1-14.2 9.6-7.8 1.9-7.8 6.3-7.8 11.7z" fill="rgb(0,0,0)"/></g><g><path d="m32 55c-5.7 0-11.2-2.6-15-7.1-.4-.4-.3-1 .1-1.4s1-.3 1.4.1c3.5 4.1 8.4 6.4 13.5 6.4s10-2.3 13.5-6.4c.4-.4 1-.5 1.4-.1s.5 1 .1 1.4c-3.8 4.5-9.3 7.1-15 7.1z" fill="rgb(0,0,0)"/></g><g><path d="m17.7 22.3c-.4 0-.8-.2-.9-.6-.8-2.1-.8-2.8-.8-7.7 0-4.2 2.6-7.6 5.3-8.8 2.1-2.9 5.4-4.2 10.7-4.2 2.6 0 5.1.5 7.2 1.4 3.5 1 6.6.6 6.6.6.5-.1 1 .3 1.1.8 0 .1.5 2.3-.8 4.2 1.3 2.1 1.8 5.1 1.8 7.2 0 1.9 0 4.4-.8 6.5-.2.5-.8.8-1.3.6s-.8-.8-.6-1.3c.7-1.7.7-3.9.7-5.8 0-2-.6-5-1.8-6.6-.3-.4-.3-.9 0-1.3.6-.8.8-1.6.8-2.3-1.3 0-3.7 0-6.3-.7-.1 0-.1 0-.2-.1-1.8-.8-4-1.2-6.4-1.2-5.9 0-7.9 1.7-9.2 3.6-.1.2-.3.3-.5.4-2.1.8-4.3 3.5-4.3 7 0 4.8 0 5.2.7 6.9.2.5-.1 1.1-.6 1.3-.1.1-.3.1-.4.1z" fill="rgb(0,0,0)"/></g></g></svg>