<svg id="Image" height="512" viewBox="0 0 64 64" width="512" xmlns="http://www.w3.org/2000/svg"><g><g><path d="m4 63c-.6 0-1-.4-1-1v-2c0-4 2.3-7.9 6.4-10.9.4-.3 1.1-.2 1.4.2s.2 1.1-.2 1.4c-4.6 3.3-5.6 6.9-5.6 9.3v2c0 .6-.4 1-1 1z" fill="rgb(0,0,0)"/></g><g><path d="m23.7 18.5c-.3 0-.6-.2-.8-.4-.3-.5-.2-1.1.3-1.4 2.6-1.8 5.6-2.7 8.8-2.7s6.2.9 8.8 2.7c.5.3.6.9.3 1.4s-.9.6-1.4.3c-2.2-1.6-4.9-2.4-7.7-2.4s-5.5.8-7.7 2.3c-.2.2-.4.2-.6.2z" fill="rgb(0,0,0)"/></g><g><path d="m32 37c-4.5 0-12-4-12-19v-3c0-.6.4-1 1-1s1 .4 1 1v3c0 11.7 5.2 17 10 17s10-5.3 10-17c0-1-.6-2.9-.9-3.6-1.7-3.2-3.9-5.4-9.1-5.4-3.4 0-6.7 1.8-8.1 4.5-.3.5-.9.7-1.4.4s-.7-.9-.4-1.4c1.8-3.3 5.7-5.5 9.9-5.5 6.6 0 9.2 3.3 10.9 6.5v.1c.1.3 1.1 2.8 1.1 4.4 0 15-7.5 19-12 19z" fill="rgb(0,0,0)"/></g><g><path d="m27 51c-.1 0-.2 0-.2 0-11.7-2.8-11.8-13.5-11.8-14 0-2.7.3-4.5.5-6.3.3-1.7.5-3.3.5-5.7 0-15.7 5.5-24 16-24 4.5 0 8 1.3 10.5 3.8 4.7 4.7 4.6 12.6 4.5 17.9v1.4c0 4.1.6 6.1 1.1 7.8.4 1.5.9 2.9.9 5.2 0 .6-.4 1-1 1s-1-.4-1-1c0-2-.4-3.2-.8-4.6-.6-1.9-1.2-4-1.2-8.4 0-.4 0-.9 0-1.4 0-4.9.1-12.3-4-16.4-2-2.2-5.1-3.3-9-3.3-9.3 0-14 7.4-14 22 0 2.6-.3 4.3-.5 6-.3 1.8-.5 3.4-.5 6 0 .4.1 9.6 10.2 12 .5.1.9.7.7 1.2 0 .5-.4.8-.9.8z" fill="rgb(0,0,0)"/></g><g><path d="m54 47c-.5 0-.9-.4-1-.9-.2-1.8-2.5-5.1-6-5.1-2.2 0-4.3 1.3-6.6 2.7-2.6 1.6-5.3 3.3-8.4 3.3-10.7 0-13-11.6-13-11.8-.1-.5.3-1.1.8-1.2s1.1.3 1.2.8 2 10.2 11 10.2c2.5 0 5-1.5 7.3-3 2.4-1.5 4.9-3 7.7-3 4.5 0 7.6 4.1 8 6.9.1.5-.3 1.1-.9 1.1z" fill="rgb(0,0,0)"/></g><g><path d="m60 63c-.6 0-1-.4-1-1v-2c0-2.4-1-7-8.1-10.9-5.3-3-8.6-.6-12.7 2.5-3.5 2.5-7.4 5.4-13.2 5.4-8.9 0-13-4.8-13-9.5 0-2.4 1-5.7 1-5.8.2-.5.7-.8 1.2-.7.5.2.8.7.7 1.2 0 0-.9 3.2-.9 5.3 0 3.7 3.4 7.5 11 7.5 5.2 0 8.7-2.6 12-5 4.3-3.2 8.4-6.2 14.9-2.6 7.9 4.4 9.1 9.8 9.1 12.6v2c0 .6-.4 1-1 1z" fill="rgb(0,0,0)"/></g><g><path d="m33 63c-.6 0-1-.4-1-1v-5c0-.6.4-1 1-1s1 .4 1 1v5c0 .6-.4 1-1 1z" fill="rgb(0,0,0)"/></g><g><path d="m47 63c-.6 0-1-.4-1-1v-12c0-.6.4-1 1-1s1 .4 1 1v12c0 .6-.4 1-1 1z" fill="rgb(0,0,0)"/></g></g></svg>