<?xml version="1.0" encoding="UTF-8"?>
<svg xmlns="http://www.w3.org/2000/svg" xmlns:xlink="http://www.w3.org/1999/xlink" xmlns:svgjs="http://svgjs.com/svgjs" version="1.1" width="512" height="512" x="0" y="0" viewBox="0 0 496 496" style="enable-background:new 0 0 512 512" xml:space="preserve" class="">
  <g>
    <path fill="#6b4deb" d="M248 64C146.535 64 64 146.543 64 248s82.535 184 184 184 184-82.543 184-184S349.465 64 248 64zm0 328c-79.527 0-144-64.473-144-144s64.473-144 144-144 144 64.473 144 144-64.473 144-144 144zm0 0" data-original="#f0bc5e" class=""/>
    <path d="M248 0C111.246 0 0 111.258 0 248s111.246 248 248 248 248-111.258 248-248S384.754 0 248 0zm231.8 256c-.878 25.71-5.929 50.375-14.542 73.328l-29.418-12.183-6.13 14.785 29.368 12.168a232.735 232.735 0 0 1-41.59 62.086L395.07 383.77l-11.308 11.308 22.414 22.418a232.524 232.524 0 0 1-62.086 41.582l-12.16-29.367-14.785 6.129 12.183 29.406c-22.953 8.625-47.617 13.676-73.328 14.547V448h-16v31.8c-25.71-.878-50.375-5.929-73.328-14.542l12.183-29.41-14.785-6.13-12.16 29.372a232.815 232.815 0 0 1-62.086-41.586l22.414-22.414-11.308-11.313-22.418 22.414a232.776 232.776 0 0 1-41.59-62.093l29.367-12.168-6.129-14.785-29.418 12.183C22.13 306.375 17.078 281.711 16.2 256H48v-16H16.2c.878-25.71 5.929-50.375 14.542-73.328l29.418 12.183 6.13-14.785-29.368-12.168a232.9 232.9 0 0 1 41.59-62.093l22.418 22.414 11.308-11.313-22.414-22.414A232.63 232.63 0 0 1 151.91 36.91l12.16 29.371 14.785-6.129-12.183-29.41C189.625 22.13 214.289 17.078 240 16.2V48h16V16.2c25.71.878 50.375 5.929 73.328 14.542L317.152 60.16l14.786 6.13 12.16-29.368a232.524 232.524 0 0 1 62.086 41.582l-22.414 22.418 11.308 11.308 22.418-22.414a232.84 232.84 0 0 1 41.594 62.086l-29.371 12.168 6.129 14.785 29.418-12.183c8.613 22.953 13.672 47.617 14.543 73.328H448v16zm0 0" fill="#c4c4c4" data-original="#000000" class=""/>
    <path d="M248 96c-83.816 0-152 68.184-152 152s68.184 152 152 152 152-68.184 152-152S331.816 96 248 96zm112.902 76.29-85.03 37.343 9.241-92.352a136.358 136.358 0 0 1 75.79 55.008zM248 272c-13.23 0-24-10.77-24-24s10.77-24 24-24 24 10.77 24 24-10.77 24-24 24zm-39.938-24.594-94.246-20.527c2.262-14.43 6.75-28.11 13.192-40.664l88.367 38.808a39.533 39.533 0 0 0-7.313 22.383zm79.875 0a39.688 39.688 0 0 0-7.304-22.39L369 186.207c6.441 12.563 10.922 26.242 13.191 40.664zm-18.562-133.558-9.613 96.12c-3.746-1.16-7.64-1.968-11.762-1.968s-8.023.809-11.77 1.969l-9.605-96.121C233.609 112.742 240.711 112 248 112s14.39.742 21.375 1.848zm-58.488 3.433 9.234 92.352-85.023-37.344a136.358 136.358 0 0 1 75.789-55.008zm-98.63 125.63 90.638 19.745-61.711 69.246C122.969 308.762 112 279.664 112 248c0-1.719.191-3.383.258-5.09zm39.544 101.12 64.304-72.152c4.774 6.367 11.375 11.191 19.047 13.816l-48.726 83.418c-12.824-6.554-24.547-14.976-34.625-25.082zm49.406 31.496L248 295.426l46.793 80.11C280.176 380.91 264.465 384 248 384s-32.176-3.09-46.793-8.473zm108.36-6.422-48.727-83.418c7.672-2.625 14.273-7.449 19.047-13.816l64.304 72.152c-10.07 10.114-21.793 18.536-34.625 25.082zm45.25-37.203-61.712-69.246 90.637-19.746c.067 1.707.258 3.371.258 5.09 0 31.664-10.969 60.762-29.184 83.902zm0 0" fill="#c4c4c4" data-original="#000000" class=""/>
  </g>
</svg>
