<?xml version="1.0" encoding="iso-8859-1"?>
<!-- Generator: Adobe Illustrator 19.0.0, SVG Export Plug-In . SVG Version: 6.00 Build 0)  -->
<svg version="1.1" id="Capa_1" xmlns="http://www.w3.org/2000/svg" xmlns:xlink="http://www.w3.org/1999/xlink" x="0px" y="0px"
	 viewBox="0 0 512 512" style="enable-background:new 0 0 512 512;" xml:space="preserve">
<g>
	<g>
		<path d="M394.667,0h-29.76c-25.003,0-48.235,12.437-62.123,33.259l-23.659,35.499c-3.264,4.907-1.941,11.52,2.965,14.784
			c1.835,1.216,3.883,1.792,5.909,1.792c3.435,0,6.827-1.664,8.875-4.757l23.659-35.499c9.92-14.869,26.517-23.744,44.373-23.744
			h29.76c5.888,0,10.667-4.779,10.667-10.667S400.555,0,394.667,0z"/>
	</g>
</g>
<g>
	<g>
		<path d="M232.875,68.757l-23.659-35.499C195.328,12.437,172.096,0,147.093,0h-29.76c-5.888,0-10.667,4.779-10.667,10.667
			s4.779,10.667,10.667,10.667h29.76c17.856,0,34.453,8.875,44.373,23.744l23.637,35.499c2.069,3.093,5.44,4.757,8.896,4.757
			c2.048,0,4.096-0.576,5.909-1.792C234.816,80.277,236.139,73.664,232.875,68.757z"/>
	</g>
</g>
<g>
	<g>
		<path d="M256,64c-35.285,0-64,28.715-64,64s28.715,64,64,64s64-28.715,64-64S291.285,64,256,64z M256,170.667
			c-23.531,0-42.667-19.136-42.667-42.667c0-23.531,19.136-42.667,42.667-42.667s42.667,19.136,42.667,42.667
			C298.667,151.531,279.531,170.667,256,170.667z"/>
	</g>
</g>
<g>
	<g>
		<path d="M362.667,262.741v-60.075c0-29.397-23.936-53.333-53.333-53.333h-10.667c-5.888,0-10.667,4.779-10.667,10.667
			s4.779,10.667,10.667,10.667h10.667c17.643,0,32,14.357,32,32v64c0,2.603,0.939,5.099,2.667,7.061
			c16.896,19.179,18.667,35.328,18.667,67.605c0,45.611-12.501,76.779-38.229,95.275c-4.779,3.435-5.867,10.112-2.432,14.891
			c2.069,2.901,5.355,4.437,8.661,4.437c2.176,0,4.352-0.661,6.229-2.005C368.597,431.104,384,394.283,384,341.333
			C384,308.843,382.507,286.912,362.667,262.741z"/>
	</g>
</g>
<g>
	<g>
		<path d="M213.333,149.333h-10.667c-29.397,0-53.333,23.936-53.333,53.333v60.075C129.493,286.912,128,308.843,128,341.333
			c0,52.949,15.403,89.771,47.104,112.597c1.899,1.344,4.075,2.005,6.229,2.005c3.307,0,6.571-1.536,8.661-4.437
			c3.435-4.779,2.347-11.456-2.432-14.891c-25.728-18.496-38.229-49.664-38.229-95.275c0-32.277,1.771-48.427,18.667-67.605
			c1.728-1.963,2.667-4.459,2.667-7.061v-64c0-17.643,14.357-32,32-32h10.667c5.888,0,10.667-4.779,10.667-10.667
			S219.221,149.333,213.333,149.333z"/>
	</g>
</g>
<g>
	<g>
		<path d="M256,362.667c-23.531,0-42.667,19.136-42.667,42.667v64C213.333,492.864,232.469,512,256,512s42.667-19.136,42.667-42.667
			v-64C298.667,381.803,279.531,362.667,256,362.667z M277.333,469.333c0,11.755-9.579,21.333-21.333,21.333
			s-21.333-9.579-21.333-21.333v-64c0-11.755,9.579-21.333,21.333-21.333s21.333,9.579,21.333,21.333V469.333z"/>
	</g>
</g>
<g>
	<g>
		<path d="M330.496,244.203c-41.067-41.088-107.925-41.088-149.013,0c-4.16,4.16-4.16,10.923,0,15.083s10.923,4.16,15.083,0
			c32.768-32.768,86.08-32.768,118.848,0c2.091,2.069,4.821,3.115,7.552,3.115s5.461-1.045,7.531-3.115
			C334.656,255.125,334.656,248.363,330.496,244.203z"/>
	</g>
</g>
<g>
</g>
<g>
</g>
<g>
</g>
<g>
</g>
<g>
</g>
<g>
</g>
<g>
</g>
<g>
</g>
<g>
</g>
<g>
</g>
<g>
</g>
<g>
</g>
<g>
</g>
<g>
</g>
<g>
</g>
</svg>
