<svg id="_x31__px" height="512" viewBox="0 0 24 24" width="512" xmlns="http://www.w3.org/2000/svg"><path d="m12 24c-6.617 0-12-5.383-12-12s5.383-12 12-12 12 5.383 12 12-5.383 12-12 12zm0-23c-6.065 0-11 4.935-11 11s4.935 11 11 11 11-4.935 11-11-4.935-11-11-11z"/><path d="m13.5 19.85c-.233 0-.441-.163-.489-.4-.055-.271.119-.534.39-.59 1.605-.327 3.05-1.216 4.068-2.5.172-.218.486-.254.702-.081.216.171.253.485.081.702-1.164 1.469-2.816 2.484-4.651 2.859-.035.007-.068.01-.101.01z"/><path d="m15.129 5.69c-.07 0-.142-.015-.21-.047-1.843-.854-3.996-.854-5.839 0-.25.121-.547.008-.663-.243-.117-.25-.008-.547.243-.663 2.108-.979 4.572-.979 6.681 0 .25.116.359.413.242.663-.084.183-.265.29-.454.29z"/><path d="m4.709 14.24c-.224 0-.428-.151-.484-.379-.149-.596-.225-1.222-.225-1.861 0-1.802.587-3.5 1.697-4.909.171-.216.486-.253.702-.083.217.171.254.485.083.702-.969 1.231-1.482 2.715-1.482 4.29 0 .557.065 1.102.195 1.619.067.268-.096.539-.364.606-.04.01-.081.015-.122.015z"/><path d="m10.5 19.85c-.033 0-.067-.003-.101-.01-1.824-.375-3.475-1.39-4.65-2.857-.172-.216-.137-.53.078-.703.216-.172.531-.137.703.078 1.029 1.286 2.475 2.175 4.07 2.502.271.056.445.32.389.591-.048.236-.256.399-.489.399z"/><path d="m19.291 14.24c-.04 0-.081-.005-.122-.015-.268-.067-.431-.339-.364-.606.13-.517.195-1.062.195-1.619 0-1.575-.513-3.059-1.482-4.29-.171-.217-.134-.531.083-.702.217-.172.532-.133.702.083 1.11 1.409 1.697 3.107 1.697 4.909 0 .639-.076 1.265-.225 1.861-.057.228-.26.379-.484.379z"/><path d="m13.5 14h-3c-.21 0-.398-.132-.47-.329l-1-2.75c-.07-.191-.016-.406.135-.543l2.5-2.25c.19-.17.479-.17.669 0l2.5 2.25c.151.137.205.352.135.543l-1 2.75c-.071.197-.259.329-.469.329zm-2.65-1h2.3l.765-2.104-1.915-1.723-1.915 1.724z"/><path d="m12 9c-.123 0-.247-.045-.343-.137-.201-.189-.21-.506-.02-.707l4.25-4.5c.188-.199.505-.21.707-.02.201.189.21.506.02.707l-4.25 4.5c-.099.104-.231.157-.364.157z"/><path d="m14.5 11.25c-.128 0-.256-.049-.354-.146-.195-.195-.195-.512 0-.707l4.5-4.5c.195-.195.512-.195.707 0s.195.512 0 .707l-4.5 4.5c-.097.097-.225.146-.353.146z"/><path d="m12 9c-.133 0-.265-.053-.363-.156l-4.25-4.5c-.19-.201-.181-.518.02-.707.201-.19.518-.18.707.02l4.25 4.5c.19.201.181.518-.02.707-.097.091-.221.136-.344.136z"/><path d="m9.5 11.25c-.128 0-.256-.049-.354-.146l-4.5-4.5c-.195-.195-.195-.512 0-.707s.512-.195.707 0l4.5 4.5c.195.195.195.512 0 .707-.097.097-.225.146-.353.146z"/><path d="m5 18c-.155 0-.307-.071-.405-.206-.163-.224-.113-.536.11-.698l5.5-4c.224-.162.536-.113.698.11.163.224.113.536-.11.698l-5.5 4c-.088.065-.19.096-.293.096z"/><path d="m3.5 15c-.167 0-.33-.083-.424-.235-.146-.233-.075-.542.159-.688l6-3.75c.235-.147.543-.076.689.159.146.233.075.542-.159.688l-6 3.75c-.082.052-.174.076-.265.076z"/><path d="m10.5 21.5c-.276 0-.5-.224-.5-.5v-7.5c0-.276.224-.5.5-.5s.5.224.5.5v7.5c0 .276-.224.5-.5.5z"/><path d="m13.5 21.5c-.276 0-.5-.224-.5-.5v-7.5c0-.276.224-.5.5-.5s.5.224.5.5v7.5c0 .276-.224.5-.5.5z"/><path d="m19 18c-.102 0-.205-.031-.293-.096l-5.5-4c-.224-.162-.273-.475-.11-.698.162-.224.475-.272.698-.11l5.5 4c.224.162.273.475.11.698-.098.135-.251.206-.405.206z"/><path d="m20.5 15c-.09 0-.182-.024-.265-.076l-6-3.75c-.234-.146-.305-.455-.159-.688.146-.235.454-.307.689-.159l6 3.75c.234.146.305.455.159.688-.095.152-.258.235-.424.235z"/></svg>