<?xml version="1.0" encoding="UTF-8"?>
<svg xmlns="http://www.w3.org/2000/svg" xmlns:xlink="http://www.w3.org/1999/xlink" xmlns:svgjs="http://svgjs.com/svgjs" version="1.1" width="512" height="512" x="0" y="0" viewBox="0 0 64 64" style="enable-background:new 0 0 512 512" xml:space="preserve" class="">
  <g>
    <path fill="#6b4deb" d="M32 39c-3.86 0-7-3.141-7-7 0-3.86 3.14-7 7-7s7 3.14 7 7c0 3.859-3.14 7-7 7zm0-9c-1.103 0-2 .897-2 2s.897 2 2 2 2-.897 2-2-.897-2-2-2z" data-original="#f0bc5e" class=""/>
    <path d="M32 35c-1.654 0-3-1.346-3-3s1.346-3 3-3 3 1.346 3 3-1.346 3-3 3zm0-4c-.551 0-1 .449-1 1s.449 1 1 1 1-.449 1-1-.449-1-1-1z" fill="#c4c4c4" data-original="#000000" class=""/>
    <g fill="#f0bc5e">
      <path d="M32 17c-1.654 0-3 1.346-3 3s1.346 3 3 3 3-1.346 3-3-1.346-3-3-3zM23.108 23.402a3.004 3.004 0 0 0-4.099 1.098c-.4.694-.507 1.502-.299 2.276s.704 1.421 1.398 1.822a3 3 0 0 0 3-5.196zM20.108 35.401a3.004 3.004 0 0 0-1.099 4.099 3.002 3.002 0 0 0 5.198-3 3.007 3.007 0 0 0-4.099-1.099zM32 41c-1.654 0-3 1.346-3 3s1.346 3 3 3 3-1.346 3-3-1.346-3-3-3zM43.892 35.401a3.008 3.008 0 0 0-4.098 1.099 3.005 3.005 0 0 0 1.098 4.099h.001a3.003 3.003 0 0 0 4.099-1.099 3.007 3.007 0 0 0-1.1-4.099zM42.397 29a2.98 2.98 0 0 0 1.495-.401 2.982 2.982 0 0 0 1.398-1.822 2.979 2.979 0 0 0-.299-2.276 3.003 3.003 0 0 0-4.099-1.098 3.003 3.003 0 0 0-1.098 4.098A3.004 3.004 0 0 0 42.397 29z" fill="#6b4deb" data-original="#f0bc5e" class=""/>
    </g>
    <path d="M9 11h2v2H9zM9 15h2v2H9zM9 19h2v2H9zM9 51h2v2H9zM9 47h2v2H9zM9 43h2v2H9z" fill="#c4c4c4" data-original="#000000" class=""/>
    <path d="M32 1a30.702 30.702 0 0 0-17 5.095V5H9.465L8.459 6.509A32.4 32.4 0 0 0 3 24.539h2a30.4 30.4 0 0 1 5.123-16.92L10.535 7H13v50h-2.465l-.412-.618A30.405 30.405 0 0 1 5 39.461H3a32.4 32.4 0 0 0 5.459 18.03L9.465 59H15v-1.095A30.705 30.705 0 0 0 32 63c17.093 0 31-13.906 31-31C63 14.907 49.093 1 32 1zm0 60c-6.169 0-12.031-1.918-17-5.524V40.434C18.114 46.685 24.555 51 32 51c10.477 0 19-8.523 19-19s-8.523-19-19-19c-7.445 0-13.886 4.315-17 10.566V8.523A28.735 28.735 0 0 1 32 3c15.991 0 29 13.009 29 29 0 15.99-13.009 29-29 29zM15 32c0-9.374 7.626-17 17-17s17 7.626 17 17-7.626 17-17 17-17-7.626-17-17z" fill="#c4c4c4" data-original="#000000" class=""/>
    <path fill="#6b4deb" d="M6 41c-2.757 0-5-2.243-5-5s2.243-5 5-5 5 2.243 5 5-2.243 5-5 5zm0-6c-.551 0-1 .449-1 1s.449 1 1 1 1-.449 1-1-.449-1-1-1z" data-original="#f0bc5e" class=""/>
    <path fill="#6b4deb" d="M6 33c-2.757 0-5-2.243-5-5s2.243-5 5-5 5 2.243 5 5-2.243 5-5 5zm0-6c-.551 0-1 .449-1 1s.449 1 1 1 1-.449 1-1-.449-1-1-1z" data-original="#f0bc5e" class=""/>
    <circle cx="6" cy="36" r="1" fill="#c4c4c4" data-original="#000000" class=""/>
    <circle cx="6" cy="28" r="1" fill="#c4c4c4" data-original="#000000" class=""/>
    <path d="m34.364 59.778-1.415-1.414 1.414-1.414 1.415 1.414zm-2.828-2.829-1.414-1.414 1.414-1.414 1.414 1.414zm-2.829-2.828-1.414-1.414 1.414-1.414 1.414 1.414zM47.937 54.875l-1.932-.518.518-1.932 1.932.518zm-3.865-1.035-1.932-.519.519-1.932 1.932.519zm-3.863-1.036-1.932-.518.518-1.932 1.932.518zM47.579 46.43l-.518-1.932 1.932-.518.518 1.932zm3.864-1.035-.518-1.932 1.932-.518.518 1.932zm3.864-1.036-.518-1.932 1.932-.518.518 1.932zM52.707 36.707l-1.414-1.414 1.414-1.414 1.414 1.414zm2.829-2.828-1.414-1.414 1.414-1.415 1.414 1.414zm2.828-2.829-1.414-1.414 1.415-1.415 1.414 1.414zM52.286 25.723l-1.932-.518.518-1.932 1.932.518zm1.035-3.864-1.932-.519.518-1.932 1.932.519zm1.036-3.864-1.932-.518.518-1.932 1.932.518zM44.498 16.938l-.518-1.932 1.932-.518.518 1.932zm-1.035-3.863-.518-1.932 1.932-.518.518 1.932zm-1.035-3.864-.518-1.932 1.932-.518.518 1.932zM35.293 12.707l-1.414-1.414 1.414-1.414 1.414 1.414zm-2.829-2.829L31.05 8.464l1.414-1.414 1.414 1.414zM29.636 7.05l-1.415-1.415 1.414-1.414 1.415 1.415zM25.205 13.646l-1.932-.518.518-1.932 1.932.518zm-3.864-1.036-1.932-.518.519-1.932 1.932.518zm-3.863-1.035-1.932-.518.518-1.932 1.932.518zM20.158 57.238l-.518-1.932 1.932-.518.518 1.932zm-1.035-3.863-.518-1.933 1.932-.518.518 1.933zm-1.035-3.864-.518-1.932 1.932-.518.518 1.932z" fill="#c4c4c4" data-original="#000000" class=""/>
  </g>
</svg>
