<?xml version="1.0" encoding="UTF-8"?>
<svg xmlns="http://www.w3.org/2000/svg" xmlns:xlink="http://www.w3.org/1999/xlink" xmlns:svgjs="http://svgjs.com/svgjs" version="1.1" width="512" height="512" x="0" y="0" viewBox="0 0 62 62.783" style="enable-background:new 0 0 512 512" xml:space="preserve" class="">
  <g>
    <path fill="#6b4deb" d="M27 33.783h-1a1 1 0 0 1-1-1v-2a1 1 0 0 1 1-1h7v-4c0-.489.182-.931.474-1.279L22 6.956 7.447 29.214A21.087 21.087 0 0 0 4 40.783c0 9.925 8.075 18 18 18 1.701 0 3.38-.246 5-.713z" data-original="#f0bc5e" class=""/>
    <path d="M60 28.783h-6v-3c0-1.654-1.346-3-3-3H37.434L22 0 4.659 25.599A26.972 26.972 0 0 0 0 40.783c0 12.131 9.869 22 22 22 1.929 0 3.835-.262 5.681-.754.656.47 1.453.754 2.319.754h26c2.206 0 4-1.794 4-4v-24c1.103 0 2-.897 2-2v-2c0-1.103-.897-2-2-2zm-8-3v3H34v-3c0-.551.449-1 1-1h16c.551 0 1 .449 1 1zm-50 15A24.98 24.98 0 0 1 6.315 26.72L22 3.566l13.018 19.217H35c-1.654 0-3 1.346-3 3v3h-6c-1.103 0-2 .897-2 2v2c0 1.103.897 2 2 2v24c0 .543.111 1.06.308 1.533a20.095 20.095 0 0 1-4.308.467c-11.028 0-20-8.971-20-20zm50 14v-20h2v20zm-2 0h-2v-20h2zm-4 0h-2v-20h2zm-4 0h-2v-20h2zm-4 0h-2v-20h2zm-4 0h-2v-20h2zm-4 0h-2v-20h2zm26 6H30c-1.103 0-2-.897-2-2v-2h30v2c0 1.103-.897 2-2 2zm2-6h-2v-20h2zm-32-22v-2h34l.001 2z" fill="#c4c4c4" data-original="#000000" class=""/>
    <path d="M22 34.783c0-3.309-2.691-6-6-6s-6 2.691-6 6 2.691 6 6 6 6-2.691 6-6zm-10 0c0-2.206 1.794-4 4-4s4 1.794 4 4-1.794 4-4 4-4-1.794-4-4zM22 27.783c2.206 0 4-1.794 4-4s-1.794-4-4-4-4 1.794-4 4 1.794 4 4 4zm0-6c1.103 0 2 .897 2 2s-.897 2-2 2-2-.897-2-2 .897-2 2-2zM20 42.783c-2.206 0-4 1.794-4 4s1.794 4 4 4 4-1.794 4-4-1.794-4-4-4zm0 6c-1.103 0-2-.897-2-2s.897-2 2-2 2 .897 2 2-.897 2-2 2z" fill="#c4c4c4" data-original="#000000" class=""/>
  </g>
</svg>
