<?xml version="1.0" encoding="UTF-8"?>
<svg xmlns="http://www.w3.org/2000/svg" xmlns:xlink="http://www.w3.org/1999/xlink" xmlns:svgjs="http://svgjs.com/svgjs" version="1.1" width="512" height="512" x="0" y="0" viewBox="0 0 62 62" style="enable-background:new 0 0 512 512" xml:space="preserve" class="">
  <g>
    <path fill="#6b4deb" d="M26 20h7c.551 0 1 .448 1 1v16h10v-2c0-.552.449-1 1-1h7c1.654 0 3-1.346 3-3v-4c0-1.654-1.346-3-3-3h-7c-.551 0-1-.448-1-1v-2c0-.552.449-1 1-1h7c1.654 0 3-1.346 3-3v-4c0-1.654-1.346-3-3-3H26c-1.654 0-3 1.346-3 3v4c0 1.654 1.346 3 3 3z" data-original="#f0bc5e"/>
    <path d="M36 8h6v2h2V6h-2V0h-6v6h-2v4h2zm2-6h2v4h-2zM57 36H21a5.01 5.01 0 0 0-4.899 4H8v2H0v6h8v6h6v-4h2.101A5.009 5.009 0 0 0 21 54h3v4h2v4h6v-4h2v-4h2c0 1.103.897 2 2 2v4h6v-4c1.103 0 2-.897 2-2h2v4h2v4h6v-4h2v-4.101A5.009 5.009 0 0 0 62 49v-8c0-2.757-2.243-5-5-5zm-47 6h6v6h-6zm-8 4v-2h6v2zm10 6h-2v-2h2zm6-3v-8c0-1.302.839-2.402 2-2.816v13.631A2.994 2.994 0 0 1 18 49zm12 11h-2v-2h2zm2-4h-6v-2h6zm4-6v2H22V38h16v1c0 1.654 1.346 3 3 3h7a1.001 1.001 0 0 1 0 2h-5c-1.654 0-3 1.346-3 3v1h-2c-1.103 0-2 .897-2 2zm6 8h-2v-2h2zm2-4h-6v-4l6-.001zm10 6h-2v-2h2zm-4-4v-2h6v2zm10-7c0 1.654-1.346 3-3 3H46v-2c0-1.103-.897-2-2-2h-2v-1c0-.552.449-1 1-1h5c1.654 0 3-1.346 3-3s-1.346-3-3-3h-7c-.551 0-1-.448-1-1v-1h17c1.654 0 3 1.346 3 3z" fill="#c4c4c4" data-original="#000000" class=""/>
    <circle cx="29" cy="15" r="1" fill="#c4c4c4" data-original="#000000" class=""/>
    <circle cx="50" cy="15" r="1" fill="#c4c4c4" data-original="#000000" class=""/>
    <circle cx="50" cy="29" r="1" fill="#c4c4c4" data-original="#000000" class=""/>
  </g>
</svg>
