<?xml version="1.0" encoding="UTF-8"?>
<svg xmlns="http://www.w3.org/2000/svg" xmlns:xlink="http://www.w3.org/1999/xlink" xmlns:svgjs="http://svgjs.com/svgjs" version="1.1" width="512" height="512" x="0" y="0" viewBox="0 0 499 499.312" style="enable-background:new 0 0 512 512" xml:space="preserve" class="">
  <g>
    <path d="M448.156 355.313v16H336.875c4.785-15.313 7.281-31.45 7.281-48 0-69.528-44.168-130.047-108.984-151.704l12.984-12.984 16 16 29.656-29.656-11.312-11.313L264.156 152 187.47 75.312l18.344-18.343L194.5 45.656l-29.656 29.657 8 8-86.696 86.695c-39.976 39.976-61.992 93.129-61.992 149.664 0 14.465 2.063 28.488 5.633 41.93L9.676 393.793a62.6 62.6 0 0 0-9.52 33.184v1.71c0 16.739 6.512 32.465 18.344 44.282 11.832 11.832 27.559 18.343 44.29 18.343h1.702c11.75 0 23.23-3.289 33.192-9.519l20.914-13.066c17.742 8.304 37.191 13.273 57.566 14.289v.296h272v16h48v-144zM97.461 181.32l86.695-86.695 52.688 52.688-66.512 66.511 11.313 11.313 40.609-40.61c62.55 17.09 105.902 73.465 105.902 138.786 0 39.44-15.633 76.238-44.015 103.632-28.368 27.375-65.786 41.606-105.243 40.27-76.503-2.719-138.742-68.903-138.742-147.543 0-52.266 20.352-101.399 57.305-138.352zm-8.266 286.903a46.568 46.568 0 0 1-24.703 7.09H62.79c-12.457 0-24.168-4.848-32.977-13.657s-13.656-20.511-13.656-32.968v-1.711c0-8.747 2.457-17.29 7.086-24.711l13.012-20.809c13.293 32.711 36.789 60.262 66.254 78.453zm206.059-29.766c15.383-14.84 27.324-32.2 35.598-51.144h29.304v32h16v-32h40v80h-16v-32h-16v32h-32v-32h-16v32h-82.39c15.047-7.297 29.07-16.88 41.488-28.856zm136.902 28.856v-80h16v80zm48 16h-16v-112h16zm0 0" fill="#c4c4c4" data-original="#000000" class=""/>
    <path d="M56.156 443.313a8 8 0 1 1-16-.001 8 8 0 0 1 16 0zm0 0" fill="#c4c4c4" data-original="#000000" class=""/>
    <path fill="#6b4deb" d="M184.156 211.313c-61.761 0-112 50.238-112 112 0 61.757 50.239 112 112 112 61.758 0 112-50.243 112-112 0-61.762-50.242-112-112-112zm0 184c-39.77 0-72-32.235-72-72 0-39.77 32.23-72 72-72s72 32.23 72 72c0 39.765-32.23 72-72 72zm0 0" data-original="#f0bc5e" class=""/>
    <path d="M184.156 403.313c44.114 0 80-35.887 80-80s-35.886-80-80-80-80 35.886-80 80 35.887 80 80 80zm-60.258-58.633c8.344-7.07 18.692-11.575 29.54-12.903.789 2.856 1.925 5.543 3.43 8.016-7.473 9.102-12.598 19.977-14.954 31.473-8.078-7.13-14.336-16.243-18.016-26.586zm60.258-37.368c8.824 0 16 7.176 16 16s-7.176 16-16 16-16-7.175-16-16 7.176-16 16-16zm-27.496 73.704c.903-10.903 5.031-21.391 11.762-30.008 2.512 1.433 5.207 2.566 8.086 3.281 1.16 11.711 5.222 23.024 11.695 32.824-1.344.078-2.68.2-4.047.2-9.847 0-19.152-2.305-27.496-6.297zm48.856 2.55c-7.07-8.351-11.567-18.687-12.903-29.535 2.856-.793 5.543-1.926 8.016-3.43 9.101 7.462 19.969 12.606 31.473 14.958a64.06 64.06 0 0 1-26.586 18.007zm36.359-32.789c-10.895-.96-21.398-5.035-30.023-11.738 1.433-2.512 2.57-5.2 3.28-8.078 11.72-1.16 23.032-5.227 32.825-11.695.078 1.343.2 2.68.2 4.046 0 9.84-2.298 19.13-6.282 27.465zm2.535-48.832c-8.344 7.07-18.687 11.567-29.535 12.903-.79-2.856-1.926-5.543-3.43-8.016 7.47-9.105 12.598-19.977 14.95-31.473a64.126 64.126 0 0 1 18.015 26.586zm-32.758-36.336c-.906 10.903-5.03 21.391-11.761 30.008-2.512-1.433-5.207-2.57-8.086-3.281-1.16-11.711-5.227-23.024-11.696-32.824 1.344-.078 2.68-.2 4.047-.2 9.848 0 19.153 2.305 27.496 6.297zm-48.855-2.554c7.07 8.351 11.566 18.687 12.902 29.539-2.855.789-5.543 1.926-8.015 3.43-9.106-7.465-19.97-12.61-31.473-14.962a64.096 64.096 0 0 1 26.586-18.007zm-36.352 32.785c11.016.945 21.43 5.015 30.024 11.734-1.434 2.524-2.57 5.211-3.281 8.09-11.72 1.16-23.032 5.223-32.825 11.695-.086-1.343-.207-2.68-.207-4.047 0-9.84 2.297-19.136 6.29-27.472zM176.156 179.313c13.23 0 24-10.77 24-24 0-13.235-10.77-24-24-24s-24 10.765-24 24c0 13.23 10.77 24 24 24zm0-32c4.406 0 8 3.59 8 8 0 4.406-3.594 8-8 8-4.41 0-8-3.594-8-8 0-4.41 3.59-8 8-8zm0 0" fill="#c4c4c4" data-original="#000000" class=""/>
    <path fill="#6b4deb" d="M304.156 166.625 172.844 35.312 208.156 0 339.47 131.313zm0 0" data-original="#f0bc5e" class=""/>
  </g>
</svg>
