<svg id="_x31_px" enable-background="new 0 0 24 24" height="512" viewBox="0 0 24 24" width="512" xmlns="http://www.w3.org/2000/svg"><path d="m18 24c-.066 0-.132-.013-.194-.039-.238-.101-5.806-2.507-5.806-7.425v-4.179c0-.215.137-.405.34-.474l5.5-1.857c.104-.035.217-.035.32 0l5.5 1.857c.203.068.34.259.34.474v4.179c0 4.918-5.568 7.324-5.806 7.425-.062.026-.128.039-.194.039zm-5-11.283v3.819c0 3.784 4.055 5.958 5 6.413.944-.456 5-2.639 5-6.413v-3.819l-5-1.689z"/><path d="m17.5 19c-.009 0-.019 0-.027-.001-.143-.008-.274-.075-.363-.187l-2-2.5c-.172-.216-.138-.53.078-.703.217-.17.531-.137.703.078l1.65 2.063 3.105-3.104c.195-.195.512-.195.707 0s.195.512 0 .707l-3.5 3.5c-.093.094-.221.147-.353.147z"/><path d="m10 8c-.059 0-.117-.011-.173-.031l-9.5-3.5c-.196-.073-.327-.259-.327-.469s.131-.396.327-.469l9.5-3.5c.111-.041.234-.041.346 0l9.5 3.5c.196.073.327.259.327.469s-.131.396-.327.469l-9.5 3.5c-.056.02-.114.031-.173.031zm-8.054-4 8.054 2.967 8.054-2.967-8.054-2.967z"/><path d="m10 20c-.058 0-.116-.01-.173-.031l-9.5-3.5c-.196-.073-.327-.259-.327-.469v-12c0-.276.224-.5.5-.5s.5.224.5.5v11.651l9.173 3.38c.259.095.392.383.296.642-.074.202-.266.327-.469.327z"/><path d="m19.5 8c-.276 0-.5-.224-.5-.5v-3.5c0-.276.224-.5.5-.5s.5.224.5.5v3.5c0 .276-.224.5-.5.5z"/><path d="m10 11c-.276 0-.5-.224-.5-.5v-3c0-.276.224-.5.5-.5s.5.224.5.5v3c0 .276-.224.5-.5.5z"/></svg>