<?xml version="1.0" encoding="iso-8859-1"?>
<!-- Generator: Adobe Illustrator 19.0.0, SVG Export Plug-In . SVG Version: 6.00 Build 0)  -->
<svg fill="#2e31f8" version="1.1" id="Capa_1" xmlns="http://www.w3.org/2000/svg" xmlns:xlink="http://www.w3.org/1999/xlink" x="0px" y="0px"
	 viewBox="0 0 512 512" style="enable-background:new 0 0 512 512;" xml:space="preserve">
<g>
	<g>
		<path d="M421.184,384.96l-81.728-20.437l-6.955-27.819c21.867-21.653,36.843-51.371,41.28-81.899
			c12.117-3.392,21.504-13.803,23.125-26.837l5.333-42.667c1.131-9.003-1.643-18.091-7.616-24.939
			c-3.499-4.011-7.915-7.04-12.8-8.896l1.963-40.171l7.979-8c12.011-12.779,21.973-34.688,1.152-66.475
			C376.917,12.395,349.739,0,312.107,0c-14.827,0-49.024,0-80.853,21.376C140.373,23.275,128,65.493,128,106.667
			c0,9.579,2.325,31.147,3.861,44.16c-5.483,1.728-10.475,4.928-14.357,9.323c-6.059,6.891-8.896,16.043-7.765,25.131l5.333,42.667
			c1.749,13.931,12.331,24.853,25.664,27.456c4.416,29.333,18.624,58.112,39.232,79.403l-7.424,29.717L90.816,384.96
			C37.333,398.336,0,446.165,0,501.333C0,507.221,4.779,512,10.667,512h490.667c5.888,0,10.667-4.821,10.667-10.709
			C512,446.165,474.667,398.336,421.184,384.96z M21.888,490.667c4.373-40.725,33.621-74.88,74.112-85.013l87.915-21.973
			c3.819-0.96,6.805-3.947,7.787-7.765l10.453-41.835c0.96-3.755-0.235-7.723-3.051-10.368
			c-21.547-20.203-35.797-49.835-38.144-79.232c-0.448-5.547-5.077-9.813-10.645-9.813h-3.477c-5.376,0-9.92-4.011-10.581-9.344
			l-5.333-42.667c-0.384-3.093,0.533-6.059,2.581-8.384c2.048-2.325,4.885-3.605,8-3.605h2.197c3.072,0,5.995-1.323,8-3.605
			c2.027-2.304,2.965-5.355,2.581-8.384c-1.365-10.944-4.949-41.579-4.949-52.011c0-33.28,6.528-63.211,85.44-64
			c2.176-0.021,4.331-0.725,6.101-1.984c23.808-17.045,49.365-19.349,71.232-19.349c29.995,0,51.157,9.152,62.955,27.179
			c14.165,21.653,8.064,32.853,1.387,39.957l-10.667,10.667c-1.877,1.877-2.987,4.373-3.115,7.019l-2.581,53.397
			c-0.128,2.901,0.917,5.717,2.901,7.829s4.736,3.328,7.637,3.349c3.093,0.021,5.909,1.323,7.936,3.648
			c2.027,2.304,2.923,5.227,2.539,8.277l-5.333,42.667c-0.661,5.333-5.227,9.344-11.627,9.344c-5.568,0-10.197,4.267-10.645,9.813
			c-2.411,30.336-17.344,60.544-39.979,80.832c-2.944,2.624-4.181,6.677-3.221,10.517l10.027,40.085
			c0.96,3.819,3.947,6.805,7.744,7.765L416,405.653c40.469,10.133,69.717,44.267,74.091,85.013H21.888z"/>
	</g>
</g>
<g>
</g>
<g>
</g>
<g>
</g>
<g>
</g>
<g>
</g>
<g>
</g>
<g>
</g>
<g>
</g>
<g>
</g>
<g>
</g>
<g>
</g>
<g>
</g>
<g>
</g>
<g>
</g>
<g>
</g>
</svg>
