<svg id="Layer_2" fill='#bbbbbb' enable-background="new 0 0 24 24" height="512" viewBox="0 0 24 24" width="512" xmlns="http://www.w3.org/2000/svg"><g><path d="m6.5 15h-3c-.276 0-.5-.224-.5-.5v-3c0-.276.224-.5.5-.5h3c.276 0 .5.224.5.5v3c0 .276-.224.5-.5.5zm-2.5-1h2v-2h-2z"/></g><g><path d="m6.5 21h-3c-.276 0-.5-.224-.5-.5v-3c0-.276.224-.5.5-.5h3c.276 0 .5.224.5.5v3c0 .276-.224.5-.5.5zm-2.5-1h2v-2h-2z"/></g><g><path d="m13.5 15h-3c-.276 0-.5-.224-.5-.5v-3c0-.276.224-.5.5-.5h3c.276 0 .5.224.5.5v3c0 .276-.224.5-.5.5zm-2.5-1h2v-2h-2z"/></g><g><path d="m13.5 21h-3c-.276 0-.5-.224-.5-.5v-3c0-.276.224-.5.5-.5h3c.276 0 .5.224.5.5v3c0 .276-.224.5-.5.5zm-2.5-1h2v-2h-2z"/></g><g><path d="m20.5 15h-3c-.276 0-.5-.224-.5-.5v-3c0-.276.224-.5.5-.5h3c.276 0 .5.224.5.5v3c0 .276-.224.5-.5.5zm-2.5-1h2v-2h-2z"/></g><g><path d="m21.5 24h-19c-1.378 0-2.5-1.122-2.5-2.5v-17c0-1.378 1.122-2.5 2.5-2.5h19c1.378 0 2.5 1.122 2.5 2.5v17c0 1.378-1.122 2.5-2.5 2.5zm-19-21c-.827 0-1.5.673-1.5 1.5v17c0 .827.673 1.5 1.5 1.5h19c.827 0 1.5-.673 1.5-1.5v-17c0-.827-.673-1.5-1.5-1.5z"/></g><g><path d="m23.5 9h-23c-.276 0-.5-.224-.5-.5s.224-.5.5-.5h23c.276 0 .5.224.5.5s-.224.5-.5.5z"/></g><g><path d="m5.5 5c-.276 0-.5-.224-.5-.5v-4c0-.276.224-.5.5-.5s.5.224.5.5v4c0 .276-.224.5-.5.5z"/></g><g><path d="m18.5 5c-.276 0-.5-.224-.5-.5v-4c0-.276.224-.5.5-.5s.5.224.5.5v4c0 .276-.224.5-.5.5z"/></g></svg>