<?xml version="1.0" encoding="iso-8859-1"?>
<!-- Generator: Adobe Illustrator 19.0.0, SVG Export Plug-In . SVG Version: 6.00 Build 0)  -->
<svg fill='#bbbbbb' version="1.1" id="Capa_1" xmlns="http://www.w3.org/2000/svg" xmlns:xlink="http://www.w3.org/1999/xlink" x="0px" y="0px"
	 viewBox="0 0 512 512" style="enable-background:new 0 0 512 512;" xml:space="preserve">
<g>
	<g>
		<path d="M480,202.667H196.715c-4.608,0-8.683-2.923-10.133-7.296l-11.605-34.837c-4.373-13.077-16.576-21.867-30.357-21.867H32
			c-17.643,0-32,14.357-32,32C0,200,4.288,229.141,12.693,257.259l42.624,142.059c6.827,22.741,27.349,38.016,51.093,38.016h301.355
			c22.123,0,42.197-13.909,49.92-34.603l46.165-123.051c5.397-14.443,8.149-29.589,8.149-45.013
			C512,217.024,497.643,202.667,480,202.667z M483.861,272.192l-46.165,123.051C433.067,407.659,421.035,416,407.765,416H106.411
			c-14.251,0-26.56-9.173-30.635-22.805L33.152,251.136c-7.851-26.133-11.819-53.205-11.819-80.469
			C21.333,164.779,26.112,160,32,160h112.619c4.608,0,8.683,2.923,10.112,7.296l11.627,34.837
			C170.731,215.211,182.933,224,196.715,224H480c5.867,0,10.667,4.8,10.667,10.688C490.667,247.531,488.384,260.16,483.861,272.192z
			"/>
	</g>
</g>
<g>
	<g>
		<path d="M416,74.667H96c-29.397,0-53.333,23.936-53.333,53.333v21.333c0,5.888,4.779,10.667,10.667,10.667S64,155.221,64,149.333
			V128c0-17.643,14.357-32,32-32h320c17.643,0,32,14.357,32,32v85.333c0,5.888,4.779,10.667,10.667,10.667
			s10.667-4.779,10.667-10.667V128C469.333,98.603,445.419,74.667,416,74.667z"/>
	</g>
</g>
<g>
</g>
<g>
</g>
<g>
</g>
<g>
</g>
<g>
</g>
<g>
</g>
<g>
</g>
<g>
</g>
<g>
</g>
<g>
</g>
<g>
</g>
<g>
</g>
<g>
</g>
<g>
</g>
<g>
</g>
</svg>
