<svg fill="#2e31f8" id="_x31__px" height="512" viewBox="0 0 24 24" width="512" xmlns="http://www.w3.org/2000/svg"><path d="m12 21c-4.136 0-7.5-3.364-7.5-7.5s3.364-7.5 7.5-7.5 7.5 3.364 7.5 7.5-3.364 7.5-7.5 7.5zm0-14c-3.584 0-6.5 2.916-6.5 6.5s2.916 6.5 6.5 6.5 6.5-2.916 6.5-6.5-2.916-6.5-6.5-6.5z"/><path d="m21.5 24c-.276 0-.5-.224-.5-.5v-4c0-1.551-.999-2.898-2.485-3.352-.265-.08-.413-.36-.333-.624.081-.263.363-.414.624-.332 1.911.582 3.194 2.314 3.194 4.308v4c0 .276-.224.5-.5.5z"/><path d="m2.5 24c-.276 0-.5-.224-.5-.5v-4c0-1.994 1.283-3.726 3.194-4.308.264-.083.543.068.624.332.08.264-.068.544-.333.624-1.486.454-2.485 1.801-2.485 3.352v4c0 .276-.224.5-.5.5z"/><path d="m13.5 7c-.276 0-.5-.224-.5-.5v-3c0-.276.224-.5.5-.5s.5.224.5.5v3c0 .276-.224.5-.5.5z"/><path d="m10.5 7c-.276 0-.5-.224-.5-.5v-3c0-.276.224-.5.5-.5s.5.224.5.5v3c0 .276-.224.5-.5.5z"/><path d="m23.5 24h-23c-.276 0-.5-.224-.5-.5s.224-.5.5-.5h23c.276 0 .5.224.5.5s-.224.5-.5.5z"/><path d="m16.5 4h-9c-.827 0-1.5-.673-1.5-1.5v-1c0-.827.673-1.5 1.5-1.5h9c.827 0 1.5.673 1.5 1.5v1c0 .827-.673 1.5-1.5 1.5zm-9-3c-.275 0-.5.224-.5.5v1c0 .276.225.5.5.5h9c.275 0 .5-.224.5-.5v-1c0-.276-.225-.5-.5-.5z"/><path d="m21 5c-.276 0-.5-.224-.5-.5v-.5c0-.827-.673-1.5-1.5-1.5h-1.5c-.276 0-.5-.224-.5-.5s.224-.5.5-.5h1.5c1.379 0 2.5 1.122 2.5 2.5v.5c0 .276-.224.5-.5.5z"/><path d="m3 5c-.276 0-.5-.224-.5-.5v-.5c0-1.378 1.121-2.5 2.5-2.5h1.5c.276 0 .5.224.5.5s-.224.5-.5.5h-1.5c-.827 0-1.5.673-1.5 1.5v.5c0 .276-.224.5-.5.5z"/><path d="m23.5 8h-5c-.276 0-.5-.224-.5-.5v-1c0-1.378 1.121-2.5 2.5-2.5h1c1.379 0 2.5 1.122 2.5 2.5v1c0 .276-.224.5-.5.5zm-4.5-1h4v-.5c0-.827-.673-1.5-1.5-1.5h-1c-.827 0-1.5.673-1.5 1.5z"/><path d="m5.5 8h-5c-.276 0-.5-.224-.5-.5v-1c0-1.378 1.121-2.5 2.5-2.5h1c1.379 0 2.5 1.122 2.5 2.5v1c0 .276-.224.5-.5.5zm-4.5-1h4v-.5c0-.827-.673-1.5-1.5-1.5h-1c-.827 0-1.5.673-1.5 1.5z"/><circle cx="12" cy="9.25" r=".75"/><circle cx="12" cy="17.75" r=".75"/><circle cx="16.25" cy="13.5" r=".75"/><circle cx="7.75" cy="13.5" r=".75"/><ellipse cx="15.005" cy="10.495" rx=".75" ry=".75" transform="matrix(.707 -.707 .707 .707 -3.026 13.684)"/><ellipse cx="8.995" cy="16.505" rx=".75" ry=".75" transform="matrix(.707 -.707 .707 .707 -9.036 11.195)"/><ellipse cx="15.005" cy="16.505" rx=".75" ry=".75" transform="matrix(.707 -.707 .707 .707 -7.276 15.445)"/><ellipse cx="8.995" cy="10.495" rx=".75" ry=".75" transform="matrix(.707 -.707 .707 .707 -4.786 9.434)"/></svg>