<svg fill="#2e31f8" id="_x31__px" height="512" viewBox="0 0 24 24" width="512" xmlns="http://www.w3.org/2000/svg"><path d="m9 22c-2.479 0-4.873-1.04-6.57-2.854-1.721-1.839-2.576-4.239-2.409-6.759.313-4.703 4.389-8.387 9.279-8.387h11.2c.276 0 .5.224.5.5s-.224.5-.5.5h-11.2c-4.365 0-8.003 3.273-8.281 7.453-.149 2.24.611 4.374 2.142 6.009 1.508 1.613 3.637 2.538 5.839 2.538 4.411 0 8-3.589 8-8 0-.276.224-.5.5-.5s.5.224.5.5c0 4.963-4.037 9-9 9z"/><path d="m20.5 13.5h-6.38c-1.006 0-1.929-.646-2.351-1.646-.107-.255.012-.548.267-.655.254-.105.547.011.655.267.269.638.816 1.034 1.429 1.034h6.38c.276 0 .5.224.5.5s-.224.5-.5.5z"/><path d="m9 17c-2.206 0-4-1.794-4-4s1.794-4 4-4 4 1.794 4 4-1.794 4-4 4zm0-7c-1.654 0-3 1.346-3 3s1.346 3 3 3 3-1.346 3-3-1.346-3-3-3z"/><path d="m9 16.5c-.276 0-.5-.224-.5-.5v-6c0-.276.224-.5.5-.5s.5.224.5.5v6c0 .276-.224.5-.5.5z"/><path d="m22.5 17h-1c-.827 0-1.5-.673-1.5-1.5v-13c0-.827.673-1.5 1.5-1.5h1c.827 0 1.5.673 1.5 1.5v13c0 .827-.673 1.5-1.5 1.5zm-1-15c-.275 0-.5.225-.5.5v13c0 .275.225.5.5.5h1c.275 0 .5-.225.5-.5v-13c0-.275-.225-.5-.5-.5z"/></svg>